<svg xmlns="http://www.w3.org/2000/svg" width="600" height="400" viewBox="0 0 600 400" fill="none">
  <g clip-path="url(#clip0_123_456)">
    <path d="M300 50C188.95 50 100 138.95 100 250C100 361.05 188.95 450 300 450C411.05 450 500 361.05 500 250C500 138.95 411.05 50 300 50Z" fill="#E0E7FF" fill-opacity="0.3"/>
    <path d="M300 80C205.85 80 130 155.85 130 250C130 344.15 205.85 420 300 420C394.15 420 470 344.15 470 250C470 155.85 394.15 80 300 80Z" stroke="#2563EB" stroke-width="2" stroke-dasharray="4 4"/>
    <rect x="250" y="150" width="100" height="200" rx="10" fill="white" stroke="#2563EB" stroke-width="3"/>
    <rect x="260" y="170" width="80" height="10" rx="5" fill="#2563EB" fill-opacity="0.3"/>
    <rect x="260" y="190" width="80" height="10" rx="5" fill="#2563EB" fill-opacity="0.3"/>
    <rect x="260" y="210" width="60" height="10" rx="5" fill="#2563EB" fill-opacity="0.3"/>
    <circle cx="300" cy="270" r="30" fill="#7C3AED" fill-opacity="0.2"/>
    <path d="M285 270L295 280L315 260" stroke="#7C3AED" stroke-width="3" stroke-linecap="round" stroke-linejoin="round"/>
    <rect x="260" y="310" width="80" height="20" rx="5" fill="#2563EB"/>
    <rect x="180" y="200" width="50" height="100" rx="8" fill="white" stroke="#2563EB" stroke-width="2"/>
    <rect x="190" y="220" width="30" height="5" rx="2.5" fill="#2563EB" fill-opacity="0.2"/>
    <rect x="190" y="235" width="30" height="5" rx="2.5" fill="#2563EB" fill-opacity="0.2"/>
    <rect x="190" y="250" width="30" height="5" rx="2.5" fill="#2563EB" fill-opacity="0.2"/>
    <rect x="370" y="200" width="50" height="100" rx="8" fill="white" stroke="#2563EB" stroke-width="2"/>
    <rect x="380" y="220" width="30" height="5" rx="2.5" fill="#2563EB" fill-opacity="0.2"/>
    <rect x="380" y="235" width="30" height="5" rx="2.5" fill="#2563EB" fill-opacity="0.2"/>
    <rect x="380" y="250" width="30" height="5" rx="2.5" fill="#2563EB" fill-opacity="0.2"/>
    <circle cx="205" cy="280" r="10" fill="#7C3AED" fill-opacity="0.2"/>
    <path d="M200 280L203 283L210 276" stroke="#7C3AED" stroke-width="2" stroke-linecap="round" stroke-linejoin="round"/>
    <circle cx="395" cy="280" r="10" fill="#7C3AED" fill-opacity="0.2"/>
    <path d="M390 280L393 283L400 276" stroke="#7C3AED" stroke-width="2" stroke-linecap="round" stroke-linejoin="round"/>
    <path d="M205 180C205 180 220 140 300 140C380 140 395 180 395 180" stroke="#2563EB" stroke-width="2" stroke-dasharray="4 4"/>
    <circle cx="300" cy="120" r="15" fill="#7C3AED" fill-opacity="0.5"/>
    <path d="M300 115V125M295 120H305" stroke="white" stroke-width="2" stroke-linecap="round"/>
    <circle cx="200" cy="350" r="10" fill="#2563EB" fill-opacity="0.3"/>
    <circle cx="400" cy="350" r="10" fill="#2563EB" fill-opacity="0.3"/>
    <path d="M150 320C150 320 220 360 300 360C380 360 450 320 450 320" stroke="#7C3AED" stroke-width="2" stroke-dasharray="4 4"/>
    <path d="M460 150L500 120" stroke="#2563EB" stroke-width="2"/>
    <circle cx="510" cy="110" r="10" fill="white" stroke="#2563EB" stroke-width="2"/>
    <circle cx="510" cy="110" r="5" fill="#2563EB"/>
    <path d="M140 150L100 120" stroke="#2563EB" stroke-width="2"/>
    <circle cx="90" cy="110" r="10" fill="white" stroke="#2563EB" stroke-width="2"/>
    <circle cx="90" cy="110" r="5" fill="#2563EB"/>
  </g>
  <defs>
    <clipPath id="clip0_123_456">
      <rect width="600" height="400" fill="white"/>
    </clipPath>
  </defs>
</svg>