<svg 
  xmlns="http://www.w3.org/2000/svg" 
  viewBox="0 0 100 100" 
  width="80" 
  height="80"
>
  <rect width="100" height="100" rx="10" fill="#EFF6FF" />
  <path 
    d="M46.4,32.6c-4.4,3.4-7.2,8.8-7.2,14.8c0,10.3,8.3,18.7,18.7,18.7c6.1,0,11.5-2.9,14.8-7.4c-2.6,7.4-9.7,12.7-18.1,12.7 c-10.6,0-19.1-8.5-19.1-19.1C35.4,42.3,40.1,35.1,46.4,32.6z"
    fill="#2563EB"
    opacity="0.8"
  />
  <circle cx="58" cy="42" r="12" fill="#2563EB" />
  <path 
    d="M76,54c-2.6,10.1-11.8,17.6-22.8,17.6c-12.9,0-23.4-10.5-23.4-23.4c0-11,7.6-20.2,17.8-22.7 c-1.6,1.6-3,3.5-4,5.6c-5.7,1.6-9.8,6.8-9.8,13c0,7.5,6.1,13.6,13.6,13.6c6.1,0,11.3-4.1,12.9-9.7C72.2,51.1,74.3,52.8,76,54z"
    fill="#2563EB"
    opacity="0.4"
  />
</svg>